<svg id="Layer_1" data-name="Layer 1" xmlns="http://www.w3.org/2000/svg" xmlns:xlink="http://www.w3.org/1999/xlink" viewBox="0 0 277 58"><defs><style>.cls-1{fill:url(#linear-gradient);}.cls-2{fill:#06273f;}</style><linearGradient id="linear-gradient" x1="28.84" y1="-10.07" x2="28.84" y2="399.61" gradientUnits="userSpaceOnUse"><stop offset="0" stop-color="#ffe380"/><stop offset="0.05" stop-color="#e4b150"/><stop offset="0.13" stop-color="#be6c0e"/><stop offset="0.17" stop-color="#ca8324"/><stop offset="0.26" stop-color="#e1ac4b"/><stop offset="0.33" stop-color="#f1ca68"/><stop offset="0.4" stop-color="#fbdc7a"/><stop offset="0.45" stop-color="#ffe380"/><stop offset="0.52" stop-color="#fcdd7b"/><stop offset="0.6" stop-color="#f3cd6b"/><stop offset="0.7" stop-color="#e5b352"/><stop offset="0.8" stop-color="#d18e2f"/><stop offset="0.89" stop-color="#be6c0e"/><stop offset="0.9" stop-color="#ca8324"/><stop offset="0.93" stop-color="#e1ac4b"/><stop offset="0.96" stop-color="#f1ca68"/><stop offset="0.98" stop-color="#fbdc7a"/><stop offset="1" stop-color="#ffe380"/></linearGradient></defs><path class="cls-1" d="M47.41,29l9.28-7H45.91l7.61-7.61L42,15.85,43.53,4.31l-7.62,7.62V1.17l-7.1,9.26-7-9.28V11.93L14.16,4.32l1.53,11.57L4.15,14.31l7.62,7.62H1L10.27,29,1,36.07H11.77L4.16,43.68l11.57-1.53L14.15,53.69l7.62-7.62V56.83l7.1-9.26,7,9.28V46.07l7.61,7.61L42,42.11l11.54,1.58-7.62-7.62H56.67Zm-7.19-11.4,9.16-1.21-5.57,5.57h-7.9V14l5.55-5.55Zm-4.31,17V31.93l1.88-1.88,4.53,4.54ZM45,29l7.34,5.62H44.42L38.84,29l5.58-5.59h7.86Zm-9.05-2.9V23.41h6.41L37.79,28Zm4.35,14.31,1.22,9.16L35.91,44v-7.9h7.9l5.55,5.56ZM29.92,29l.72-.72h0l2.69-2.69L36.74,29l-3.41,3.41-3-3Zm4.51,7.07v6.42L29.89,38l1.88-1.88ZM23.25,44.58,28.84,39l5.59,5.59v7.85l-5.56-7.32-5.62,7.34Zm0-2.09V36.07h2.66L27.79,38Zm1.1-10.08L20.94,29l3.41-3.41L27.77,29Zm-1.1-10.48V15.52l4.54,4.53-1.88,1.88Zm11.18-8.51L28.84,19l-5.59-5.58V5.56l5.55,7.32,5.63-7.34Zm0,2.09v6.42H31.77l-1.88-1.88Zm-7.84,7.84h0l2.25-2.25,3.41,3.41L29.6,27.17v0l-.76.77-.76-.75h0l-2.65-2.66ZM28.84,36.9l-3.41-3.41,3.41-3.41,3.41,3.41Zm5.59-13.49v1.18l-1.18-1.18Zm-10,0-1.18,1.18V23.41ZM23.25,34.59V33.41l1.18,1.18Zm10,0,1.18-1.18v1.18ZM17.46,40.43,8.3,41.64l5.57-5.57h7.9V44l-5.56,5.56Zm4.31-17v2.66L19.89,28l-4.54-4.54Zm-9,5.63L5.38,23.41h7.88L18.84,29l-5.58,5.59H5.4Zm4.69-11.42L16.2,8.46,21.77,14v7.9h-7.9L8.31,16.38Zm4.36,14.31v2.66H15.35l4.54-4.54Z"/><path class="cls-2" d="M67.65,39.12H74.4v.74H68.46v3.52H74v.74H68.46v4.29h-.81Z"/><path class="cls-2" d="M81,39.12v5.3c0,2.67,1.64,3.43,3.19,3.43,2,0,3.09-1,3.09-3.43v-5.3h.82v5.23c0,3.13-1.57,4.25-4,4.25s-4-1.22-4-4.12V39.12Z"/><path class="cls-2" d="M95.56,44.18v4.23h-.81V39.12h4.1c1.78,0,3.08.78,3.08,2.46a2.07,2.07,0,0,1-1.74,2.21c.73.18,1.49.7,1.49,2.3v.38a9.41,9.41,0,0,0,.11,1.94H101a8.06,8.06,0,0,1-.09-1.86v-.31c0-1.6-.62-2.06-2.4-2.06Zm0-.74h3c1.64,0,2.47-.57,2.47-1.85s-.83-1.71-2.4-1.71H95.56Z"/><path class="cls-2" d="M108.33,48.41V39.12h1c1.81,2.34,5.83,7.42,6.32,8.29h0c-.08-1.33-.07-2.66-.07-4.15V39.12h.78v9.29h-.94c-1.64-2.11-5.64-7.32-6.36-8.4h0c.06,1.21.06,2.52.06,4.16v4.24Z"/><path class="cls-2" d="M124,39.12v9.29h-.81V39.12Z"/><path class="cls-2" d="M133.16,39.88h-3.68v-.76h8.19v.76H134v8.53h-.83Z"/><path class="cls-2" d="M144,39.12v5.3c0,2.67,1.64,3.43,3.19,3.43,2,0,3.09-1,3.09-3.43v-5.3h.82v5.23c0,3.13-1.57,4.25-3.95,4.25s-4-1.22-4-4.12V39.12Z"/><path class="cls-2" d="M158.57,44.18v4.23h-.81V39.12h4.1c1.78,0,3.08.78,3.08,2.46a2.07,2.07,0,0,1-1.74,2.21c.73.18,1.49.7,1.49,2.3v.38a9.41,9.41,0,0,0,.11,1.94H164a8,8,0,0,1-.1-1.86v-.31c0-1.6-.62-2.06-2.4-2.06Zm0-.74h3.05c1.64,0,2.48-.57,2.48-1.85s-.84-1.71-2.41-1.71h-3.12Z"/><path class="cls-2" d="M177.93,43.87h-5.78v3.8h6.35l-.13.74h-7V39.12h6.88v.74h-6.07v3.27h5.78Z"/><path class="cls-2" d="M83.7,18.64c0-3.16,0-6.18.09-7.86h0c-.82,2.34-4.1,9.66-6.6,15.27H75.56c-1.85-4.46-5.43-12.77-6.34-15.25h0c.14,1.9.21,5.5.21,8.31v6.94H67.65V9.4h2.67c2.45,5.54,5.66,13,6.15,14.34h0c.82-1.92,4.07-9.2,6.32-14.34h2.74V26.05H83.7Z"/><path class="cls-2" d="M108.19,18.1H98v6.32h11.21L109,26.05H96.14V9.4h12.58V11H98v5.43h10.18Z"/><path class="cls-2" d="M123.15,11h-6.5V9.4h14.88V11h-6.48v15h-1.9Z"/><path class="cls-2" d="M161.07,9.4h1.85v15h10.24l-.3,1.66H161.07Z"/><path class="cls-2" d="M190.73,9.4h1.85v15h10.25l-.31,1.66H190.73Z"/><path class="cls-2" d="M218.38,10.82h0C218,11.88,212,26.05,212,26.05h-2L217.32,9.4h2.2l7.56,16.65h-2S218.75,11.92,218.38,10.82Z"/><path class="cls-2" d="M235.59,26.05V9.4h2.25c3.48,4.65,9.82,12.7,10.73,14.36h.05c-.14-2.29-.12-4.79-.12-7.48V9.4h1.78V26.05h-2.15c-2.71-3.55-9.59-12.75-10.86-14.69h0c.14,2.15.14,4.52.14,7.46v7.23Z"/><path class="cls-2" d="M260.9,9.4h6.64c5.31,0,8.47,3.46,8.47,8.07a8.13,8.13,0,0,1-8.49,8.58H260.9Zm1.87,15h4.28c4.75,0,7-3,7-6.93,0-4.07-2.74-6.5-6.76-6.5h-4.49Z"/><path class="cls-2" d="M143.85,10.82h0c-.35,1.06-6.34,15.23-6.34,15.23h-2L142.8,9.4H145l7.56,16.65h-2S144.23,11.92,143.85,10.82Z"/></svg>