<svg id="Layer_1" data-name="Layer 1" xmlns="http://www.w3.org/2000/svg" xmlns:xlink="http://www.w3.org/1999/xlink" viewBox="0 0 265 177"><defs><style>.cls-1{fill:url(#linear-gradient);}.cls-2{fill:#fff;}</style><linearGradient id="linear-gradient" x1="132.5" y1="-20.32" x2="132.5" y2="755.18" gradientUnits="userSpaceOnUse"><stop offset="0" stop-color="#ffe480"/><stop offset="0.05" stop-color="#e4b150"/><stop offset="0.13" stop-color="#bf6c0e"/><stop offset="0.17" stop-color="#cc8424"/><stop offset="0.26" stop-color="#e2ad4c"/><stop offset="0.34" stop-color="#f2cb68"/><stop offset="0.4" stop-color="#fcdd7a"/><stop offset="0.45" stop-color="#ffe480"/><stop offset="0.52" stop-color="#fcde7b"/><stop offset="0.6" stop-color="#f3ce6b"/><stop offset="0.7" stop-color="#e5b452"/><stop offset="0.8" stop-color="#d28f2f"/><stop offset="0.89" stop-color="#bf6c0e"/><stop offset="0.9" stop-color="#cc8424"/><stop offset="0.93" stop-color="#e2ad4c"/><stop offset="0.96" stop-color="#f2cb68"/><stop offset="0.98" stop-color="#fcdd7a"/><stop offset="1" stop-color="#ffe480"/></linearGradient></defs><path class="cls-1" d="M167.65,53.59l17.57-13.33H164.81l14.41-14.41-21.9,2.9,3-21.85L145.88,21.33V1L132.45,18.49,119.12.92V21.33L104.71,6.92l2.89,21.9-21.84-3,14.43,14.43H79.82L97.35,53.69,79.78,67h20.41L85.78,81.43l21.9-2.89-3,21.84L119.12,86v20.38l13.43-17.54,13.33,17.57V86l14.41,14.41-2.9-21.9,21.85,3L164.81,67h20.38ZM154,32l17.33-2.29L160.83,40.26h-15v-15L156.4,14.79Zm-8.16,32.2v-5l3.56-3.55L158,64.21ZM163,53.58,176.9,64.21H162L151.42,53.64,162,43.07h14.87ZM145.88,48.1v-5H158l-8.59,8.59Zm8.25,27.08,2.29,17.34L145.88,82V67h15l10.52,10.52ZM134.54,53.64l1.37-1.37h0L141,47.18l6.46,6.46L141,60.1l-5.76-5.76ZM143.07,67V79.17l-8.59-8.59L138,67ZM121.93,83.14,132.5,72.56l10.57,10.58V98L132.56,84.16,121.93,98.05Zm0-4V67h5l3.56,3.56ZM124,60.1l-6.46-6.46L124,47.18l6.46,6.46Zm-2.08-19.84V28.11l8.59,8.59L127,40.26Zm21.14-16.12L132.5,34.72,121.93,24.14V9.27l10.5,13.85L143.07,9.24Zm0,4V40.26h-5l-3.56-3.56ZM128.25,42.94h0l4.25-4.25L139,45.15l-5,5v0L132.5,51.6l-1.44-1.43h0l-5-5Zm4.25,25.65L126,62.13l6.46-6.45L139,62.13Zm10.57-25.52v2.22l-2.22-2.22Zm-18.92,0-2.22,2.22V43.07Zm-2.22,21.14V62l2.22,2.22Zm18.92,0L143.07,62v2.22ZM111,75.27,93.62,77.56,104.16,67h15V82L108.6,92.49Zm8.16-32.2v5l-3.56,3.56L107,43.07ZM102,53.71,88.1,43.07H103l10.58,10.57L103,64.21H88.13Zm8.89-21.61-2.29-17.33,10.54,10.54v15h-15L93.65,29.74Zm8.25,27.08v5H107l8.59-8.58Z"/><path class="cls-2" d="M62.38,164.33h8.54v.94H63.4v4.44h7v.94h-7v5.43h-1Z"/><path class="cls-2" d="M79.22,164.33V171c0,3.39,2.07,4.34,4,4.34,2.49,0,3.92-1.2,3.92-4.34v-6.7h1V171c0,4-2,5.38-5,5.38s-5-1.55-5-5.22v-6.78Z"/><path class="cls-2" d="M97.69,170.73v5.35h-1V164.33h5.18c2.26,0,3.9,1,3.9,3.11a2.62,2.62,0,0,1-2.2,2.8c.92.23,1.89.89,1.89,2.91v.48a12.63,12.63,0,0,0,.13,2.45h-1a9.82,9.82,0,0,1-.12-2.35v-.4c0-2-.79-2.6-3-2.6Zm0-.94h3.87c2.07,0,3.12-.72,3.12-2.33s-1.05-2.17-3-2.17h-4Z"/><path class="cls-2" d="M113.85,176.08V164.33h1.25c2.29,3,7.37,9.38,8,10.48h0c-.1-1.68-.08-3.35-.08-5.25v-5.23h1v11.75h-1.2c-2.08-2.67-7.13-9.26-8-10.63h0c.08,1.53.08,3.19.08,5.27v5.36Z"/><path class="cls-2" d="M133.62,164.33v11.75h-1V164.33Z"/><path class="cls-2" d="M145.26,165.29H140.6v-1H151v1h-4.66v10.79h-1.05Z"/><path class="cls-2" d="M158.94,164.33V171c0,3.39,2.07,4.34,4,4.34,2.48,0,3.91-1.2,3.91-4.34v-6.7h1V171c0,4-2,5.38-5,5.38s-5-1.55-5-5.22v-6.78Z"/><path class="cls-2" d="M177.4,170.73v5.35h-1V164.33h5.19c2.25,0,3.9,1,3.9,3.11a2.63,2.63,0,0,1-2.21,2.8c.92.23,1.89.89,1.89,2.91v.48a12.63,12.63,0,0,0,.13,2.45h-1.05a10.45,10.45,0,0,1-.11-2.35v-.4c0-2-.79-2.6-3.05-2.6Zm0-.94h3.87c2.07,0,3.13-.72,3.13-2.33s-1.06-2.17-3.05-2.17H177.4Z"/><path class="cls-2" d="M201.89,170.34h-7.3v4.8h8l-.17.94h-8.88V164.33h8.7v.94h-7.68v4.13h7.3Z"/><path class="cls-2" d="M21,138.42c0-4,0-7.82.12-9.95h0c-1,3-5.18,12.22-8.35,19.33h-2c-2.34-5.65-6.87-16.16-8-19.3h0c.17,2.4.26,7,.26,10.51v8.79H.7V126.73H4.08c3.1,7,7.16,16.45,7.78,18.14h0c1-2.43,5.15-11.63,8-18.14h3.47V147.8H21Z"/><path class="cls-2" d="M52,137.74H39.11v8H53.29L53,147.8H36.74V126.73H52.67v2.07H39.11v6.86H52Z"/><path class="cls-2" d="M70.92,128.8H62.69v-2.07H81.52v2.07h-8.2v19h-2.4Z"/><path class="cls-2" d="M118.88,126.73h2.34v19h13l-.39,2.1H118.88Z"/><path class="cls-2" d="M156.41,126.73h2.34v19h13l-.38,2.1H156.41Z"/><path class="cls-2" d="M191.39,128.53h0c-.45,1.33-8,19.27-8,19.27h-2.52l9.23-21.07h2.79l9.56,21.07h-2.58S191.86,129.92,191.39,128.53Z"/><path class="cls-2" d="M213.16,147.8V126.73H216c4.41,5.89,12.43,16.07,13.59,18.17h.06c-.18-2.9-.15-6.07-.15-9.47v-8.7h2.25V147.8H229c-3.44-4.5-12.14-16.13-13.74-18.59h-.06c.18,2.72.18,5.71.18,9.44v9.15Z"/><path class="cls-2" d="M245.18,126.73h8.4c6.72,0,10.72,4.38,10.72,10.21,0,6.74-4.68,10.86-10.75,10.86h-8.37Zm2.37,19H253c6,0,8.82-3.85,8.82-8.76,0-5.15-3.46-8.23-8.55-8.23h-5.68Z"/><path class="cls-2" d="M97.11,128.53h0c-.44,1.33-8,19.27-8,19.27H86.54l9.24-21.07h2.78l9.56,21.07h-2.58S97.58,129.92,97.11,128.53Z"/></svg>