<svg id="Layer_1" data-name="Layer 1" xmlns="http://www.w3.org/2000/svg" xmlns:xlink="http://www.w3.org/1999/xlink" viewBox="0 0 506.91 500"><defs><style>.cls-1{fill:none;}.cls-2{clip-path:url(#clip-path);}.cls-3{opacity:0.5;}.cls-4{fill:#031521;}</style><clipPath id="clip-path"><rect class="cls-1" width="506.91" height="500"/></clipPath></defs><g class="cls-2"><g class="cls-3"><polygon class="cls-4" points="470.26 56.53 470.26 16.58 498.51 -11.66 566.69 56.53 470.26 56.53"/><polygon class="cls-4" points="535.73 143.59 553.94 281.28 470.26 197.59 470.26 78.83 588.99 78.83 672.5 162.35 535.73 143.59"/><polygon class="cls-4" points="380.2 -27.43 391.04 -38.3 390.99 -38.3 431.43 -78.73 482.75 -27.43 431.43 23.86 385.67 -21.89 380.2 -27.43"/><polygon class="cls-4" points="447.96 78.83 447.96 175.29 379.75 107.08 408 78.83 447.96 78.83"/><polygon class="cls-4" points="280.01 206.81 363.99 122.84 447.96 206.83 447.96 324.94 364.5 214.94 280.01 325.19 280.01 206.81"/><polygon class="cls-4" points="280.01 175.27 280.01 78.83 319.97 78.83 348.23 107.08 280.01 175.27"/><polygon class="cls-4" points="296.53 23.86 245.23 -27.43 296.53 -78.73 347.84 -27.43 296.53 23.86"/><polygon class="cls-4" points="363.99 91.31 312.7 40.01 363.99 -11.27 415.27 40.01 363.99 91.31"/><polygon class="cls-4" points="280.01 56.53 280.01 38.88 297.67 56.53 280.01 56.53"/><polygon class="cls-4" points="430.3 56.53 447.96 38.88 447.96 56.53 430.3 56.53"/><polygon class="cls-4" points="192.96 144.31 55.27 162.52 138.97 78.83 257.72 78.83 257.72 197.57 174.2 281.09 192.96 144.31"/><polygon class="cls-4" points="121.62 -26.92 11.38 -111.4 129.74 -111.4 213.71 -27.43 129.74 56.53 11.63 56.53 121.62 -26.92"/><polygon class="cls-4" points="257.72 16.58 257.72 56.53 161.27 56.53 229.47 -11.67 257.72 16.58"/></g></g></svg>