<svg xmlns="http://www.w3.org/2000/svg" viewBox="0 0 358 198"><defs><style>.cls-1{isolation:isolate;}.cls-2{opacity:0.31;}.cls-3{fill:#c5e1f9;}.cls-4{fill:none;}.cls-5{fill:#1989e6;}.cls-6{fill:#1c92f2;}.cls-7{fill:#4b3c51;}.cls-8{fill:#1672bf;}.cls-9{fill:#3e3244;}.cls-10{fill:#e8a17e;}.cls-11{fill:#d88d6c;}.cls-12{fill:#fff;}.cls-13{fill:#06273f;}.cls-14{fill:#161119;}.cls-15{fill:#f27b53;opacity:0.45;}.cls-16{opacity:0.4;}.cls-17{fill:#ffce45;}.cls-18{fill:#ffa748;}.cls-19{fill:#063252;}.cls-20{mix-blend-mode:multiply;}.cls-21{fill:#f0f2f5;}</style></defs><g class="cls-1"><g id="Layer_1" data-name="Layer 1"><g class="cls-2"><path class="cls-3" d="M291.43,194.13c16.11-.7,31.92-7.16,39.65-18.26,7.14-10.27,8.47-26.18,5.27-37.61-2.68-9.59-10.35-17.89-19.1-24.92-17.67-14.21-40.44-24.51-55.38-40.53-8.3-8.9-18.24-29.47-26.22-38.55C220.13,16.61,201.7,5,174.52,2.12c-35.06-3.73-58.32,22.72-69.68,42.23-9.77,16.79-7.22,37.13-19.25,53-5.53,7.29-13.77,13.08-19.84,20.09-10.8,12.49-14.07,28.81-8.66,43.29s19.39,26.85,37.08,32.78"/></g><path class="cls-4" d="M48,180.42l-.5,3.93a4.41,4.41,0,0,0,3.15-1.24,1.19,1.19,0,0,0,.22-1.22C50.5,181,49.2,180.57,48,180.42Z"/><path class="cls-5" d="M69,173.73c-1.19-3.41-4.74-4.72-7.9-5.2-6.93,10.84-15.59,13-20.33,13.28l1.38,8.12H57.76l.84-6.48c4-.07,7.46-1.43,9.34-3.74A6,6,0,0,0,69,173.73Zm-4.06,3.55c-.93,1.15-3,2.15-5.84,2.3l.94-7.3c2.32.29,4.72,1,5.32,2.73A2.21,2.21,0,0,1,64.94,177.28Z"/><path class="cls-6" d="M61.1,168.53l-.57-.09.95-7.32a.73.73,0,0,0-.72-.82H38.07a.81.81,0,0,0-.8.94l3.5,20.57C45.51,181.53,54.17,179.37,61.1,168.53Z"/><path class="cls-7" d="M189.37,39.48a52.65,52.65,0,0,0-3.86,12.41c-.67,4.16-.9,8.4-1.94,12.49a53.43,53.43,0,0,1-4.08,10.38,2.29,2.29,0,0,0-.3,1,2.16,2.16,0,0,0,1.11,1.56A30.05,30.05,0,0,0,209,80.71"/><ellipse class="cls-6" cx="187.21" cy="57.59" rx="8.02" ry="9.97"/><ellipse class="cls-8" cx="190.98" cy="59" rx="8.02" ry="9.97"/><path class="cls-9" d="M209,80.74,192.29,45.63c-1.85,6.17-3.7,12.34-5.45,18.54a34.7,34.7,0,0,0-1.35,6.27,17.79,17.79,0,0,0,.38,5.59,10.53,10.53,0,0,0,2.36,4.87,9.05,9.05,0,0,0,.74.65A29.89,29.89,0,0,0,209,80.74Z"/><path class="cls-10" d="M205.51,79.53c.75,4.26,1.38,9.1-1.27,12.53a4.67,4.67,0,0,0-1.37,2.43c-.06,1.24,1.13,2.15,2.24,2.71a17.78,17.78,0,0,0,14,.73,2.26,2.26,0,0,0,1-.62c.57-.7.21-1.73-.14-2.56a30.88,30.88,0,0,1,.24-24.12"/><path class="cls-11" d="M205.13,78.29a25.28,25.28,0,0,1,.89,8.94.39.39,0,0,0,.06.3c.09.1.26.06.4,0a12.84,12.84,0,0,0,2.84-1.31,12.7,12.7,0,0,0,3.91-4.4,13.1,13.1,0,0,0,1.35-6.78"/><path class="cls-10" d="M195.27,40.06c-3,3.39-3.74,8.22-4.14,12.76a52.43,52.43,0,0,0,0,12,21.91,21.91,0,0,0,4.54,11,16.53,16.53,0,0,0,3.78,3.35,9.62,9.62,0,0,0,3.17,1.42c2.17.46,4.41-.16,6.51-.84,4.8-1.56,9.75-3.66,12.71-7.75,3.86-5.32,6.42-19.33,7.42-25.83"/><path class="cls-11" d="M189.22,44.19a32.46,32.46,0,0,0,15.92,7.46,55.25,55.25,0,0,0,10.29.5,17.61,17.61,0,0,0,3.84-.37,7,7,0,0,0,4.33-2.92,4.72,4.72,0,0,0,.07-5.06"/><path class="cls-7" d="M228,26.45c-8.56-4.14-20.95-3.29-27.18.28S192,33.48,188.73,40.91c-.19.44-1.32,3.18-1.15,3.63a1.31,1.31,0,0,0,.84.87c7.69,2.94,14.45,3.47,22.68,3.87a28.75,28.75,0,0,0,8.18-.5c3.77,12.63,1.81,21.69-4.47,33.28,4.08,1.72,20,2.71,27.54-3.15a18.07,18.07,0,0,0,4.92-5.46c3-5.49,1.72-12.26.08-18.3a60.66,60.66,0,0,0-4.8-13.1c-3.4-6.3-8-12.77-14.58-15.6"/><path class="cls-12" d="M198,67.9c.62,1.93,1.34,3.71,3,4.8a6.1,6.1,0,0,0,5.78.1c1.82-.85,3.55-3,4.82-4.54A52.85,52.85,0,0,1,198,67.9"/><path class="cls-9" d="M233.48,78.05a3.84,3.84,0,0,1-1.24-1.53,5.81,5.81,0,0,1,.31-3.77,20,20,0,0,0,1-6.44,9.43,9.43,0,0,0-2.21-6c-2.12-2.35-5.44-3.1-8.54-3.72l-2-.39c1.16,9.06-1.05,16.68-6,25.88,4.09,1.72,20,2.71,27.55-3.15.28-.21.54-.44.81-.67a11.25,11.25,0,0,1-1.43.72A8.54,8.54,0,0,1,233.48,78.05Z"/><path class="cls-13" d="M205.6,56.5a3.8,3.8,0,0,0-3.79,0l-.41-.6a4.45,4.45,0,0,1,4.54,0Z"/><polygon class="cls-14" points="220.9 56.3 218.99 56.27 218.99 55.54 220.8 55.54 220.9 56.3"/><polyline class="cls-11" points="203.13 57.82 200.82 64.92 204.46 65.21"/><path class="cls-9" d="M210.36,52.18a5.06,5.06,0,0,1,.46-.24l.29-.13-.11,0c.24-.1.48-.19.73-.27a7,7,0,0,1,.93-.24l.6-.11-.11,0a8.62,8.62,0,0,1,1.76-.06c.19,0,.37,0,.55.06l-.12,0a8.61,8.61,0,0,1,1.75.43l.52.2-.1,0a10.66,10.66,0,0,1,1.81,1,.39.39,0,0,0,.33,0,.46.46,0,0,0,.27-.2.45.45,0,0,0,0-.34.47.47,0,0,0-.2-.26,10.3,10.3,0,0,0-2.93-1.41,9,9,0,0,0-2.63-.35,8.71,8.71,0,0,0-2.16.28,9.12,9.12,0,0,0-1.52.53,4.09,4.09,0,0,0-.59.3h0a.45.45,0,0,0-.2.27.42.42,0,0,0,0,.33.45.45,0,0,0,.26.21.49.49,0,0,0,.34,0Z"/><path class="cls-9" d="M198.56,52.23a4.31,4.31,0,0,0-.4-.32l-.26-.17.09.06a7.23,7.23,0,0,0-.66-.4,8.59,8.59,0,0,0-.87-.4l-.58-.22.11,0a9.28,9.28,0,0,0-1.72-.38l-.55,0h.12a9.83,9.83,0,0,0-1.8.1l-.55.11.11,0c-.67.15.23.61-1,.28a2.67,2.67,0,0,1,1.89-1.3,9.43,9.43,0,0,1,2.65.13,9.7,9.7,0,0,1,2.08.67,10.65,10.65,0,0,1,1.39.8,5.25,5.25,0,0,1,.53.4h0a.48.48,0,0,1,.15.29.44.44,0,0,1-.11.33.46.46,0,0,1-.29.15.49.49,0,0,1-.33-.11Z"/><path class="cls-9" d="M210.64,57.06l0-.06,0,.06.18-.22c.1-.11.2-.21.31-.31l.23-.19-.05,0a3.94,3.94,0,0,1,.61-.39l.2-.09-.06,0a3.12,3.12,0,0,1,.59-.19l.18,0h-.06a2.9,2.9,0,0,1,.59,0h.11a2.94,2.94,0,0,1,.65.16l.2.07-.06,0a4.36,4.36,0,0,1,.82.45l.24.18,0,0,.2.16a.26.26,0,0,0,.17.07.24.24,0,0,0,.25-.25.22.22,0,0,0-.07-.17,5.36,5.36,0,0,0-.93-.65,3.89,3.89,0,0,0-.87-.36,3.25,3.25,0,0,0-.82-.12,3,3,0,0,0-.73.07,3.55,3.55,0,0,0-.65.22,3.15,3.15,0,0,0-.51.28,5.07,5.07,0,0,0-.46.35c-.11.09-.21.19-.31.29s-.14.15-.2.23a1.83,1.83,0,0,0-.13.16h0a.21.21,0,0,0,0,.19.26.26,0,0,0,.12.15.24.24,0,0,0,.19,0,.29.29,0,0,0,.15-.12Z"/><path class="cls-9" d="M192.47,56.41l.05-.06,0,0a1.18,1.18,0,0,1,.18-.21,3,3,0,0,1,.31-.31l.23-.2,0,0a4.17,4.17,0,0,1,.61-.38l.2-.09-.06,0a2.88,2.88,0,0,1,.59-.18l.18,0h-.07a2.94,2.94,0,0,1,.59,0l.18,0h-.07a2.89,2.89,0,0,1,.66.16l.19.08-.06,0a4.41,4.41,0,0,1,.82.46l.24.17-.05,0,.2.17a.29.29,0,0,0,.18.07.26.26,0,0,0,.17-.07.27.27,0,0,0,.08-.18.22.22,0,0,0-.08-.18,6.08,6.08,0,0,0-.92-.65,4.52,4.52,0,0,0-.88-.36,3.69,3.69,0,0,0-.81-.12,3.05,3.05,0,0,0-.74.08,3.11,3.11,0,0,0-.65.22,5,5,0,0,0-.51.27c-.16.11-.31.23-.46.35s-.21.19-.31.3l-.2.22-.13.17h0a.27.27,0,0,0,0,.2.27.27,0,0,0,.11.15.25.25,0,0,0,.19,0,.28.28,0,0,0,.15-.11Z"/><circle class="cls-15" cx="216.17" cy="63.53" r="3.13"/><circle class="cls-15" cx="193.62" cy="62.32" r="2.64"/><path class="cls-13" d="M194.93,63.37a6.93,6.93,0,1,1,6.93-6.93A6.94,6.94,0,0,1,194.93,63.37Zm0-13a6.13,6.13,0,1,0,6.13,6.12A6.13,6.13,0,0,0,194.93,50.32Z"/><path class="cls-13" d="M212.35,63.37a6.93,6.93,0,1,1,6.93-6.93A6.94,6.94,0,0,1,212.35,63.37Zm0-13a6.13,6.13,0,1,0,6.13,6.12A6.13,6.13,0,0,0,212.35,50.32Z"/><ellipse class="cls-13" cx="205.21" cy="76.65" rx="2.41" ry="1.88" transform="matrix(1, -0.1, 0.1, 1, -6.41, 20.07)"/><path class="cls-13" d="M209.57,77a23.45,23.45,0,0,1-3.26.09l0-1c12.56.5,22.21-9.64,22.31-9.74l.75.71C229.32,67.14,221,75.92,209.57,77Z"/><path class="cls-6" d="M187.84,48.3c1-7,4.69-14.78,10.73-18.76C204,26,211.22,25.75,217.18,28c5.14,2,8.54,6.36,10.21,11.48,1.43,4.35,1.62,8.83,2,13.36.11,1.5,2.45,1.51,2.34,0-.32-4.31-.49-8.6-1.67-12.79-1.54-5.46-4.69-10.47-9.79-13.21a23.69,23.69,0,0,0-20.37-.73C194.76,28.48,191,33,188.67,38a34.5,34.5,0,0,0-3.09,9.66c-.21,1.47,2,2.11,2.26.62Z"/><ellipse class="cls-6" cx="229.25" cy="60.4" rx="8.02" ry="9.97"/><ellipse class="cls-8" cx="230.51" cy="60.4" rx="7.62" ry="9.47"/><path class="cls-6" d="M249.8,189.65c11.7-5.73,19.8-16.64,26.05-27.86C287.19,141.43,294,117.87,290.23,95c-.74-4.49-2.37-9.5-6.63-11.34a9.7,9.7,0,0,0-6.47-.24c-4.17,1.21-7.4,4.57-9.34,8.37s-2.78,8-3.55,12.2c-5.51,29.56-9.4,59.66-20,87.9"/><path class="cls-5" d="M247.76,190.13c9.06-4.21,19.43-17.12,24.46-25.74,9.13-15.64,15.9-31.87,13.56-49.81-.46-3.52-1.58-7.47-4.79-9a7.23,7.23,0,0,0-4.92-.33,12.38,12.38,0,0,0-7.32,6.33,35.49,35.49,0,0,0-3,9.44c-4.91,23-8.59,46.37-17.31,68.17"/><path class="cls-12" d="M279.6,96c-1,7.08-2,14.15-3.2,21.19S273.77,131.1,272,138a142.07,142.07,0,0,1-6.13,18.64A138.09,138.09,0,0,1,257.13,174a121.85,121.85,0,0,1-11,15.64c-.5.6-1,1.19-1.51,1.77-.11.13.07.31.18.18A117.19,117.19,0,0,0,256,176.3a132.9,132.9,0,0,0,15.5-35.68c1.9-6.9,3.4-13.89,4.67-20.92s2.32-14.12,3.3-21.21c.12-.83.23-1.67.35-2.51,0-.16-.24-.16-.26,0Z"/><path class="cls-6" d="M254.36,188.38a169.46,169.46,0,0,0,27.29,4c15,.87,33.36.33,45.26-8.82,3.86-3,7.23-7.83,5.65-12.44-1-2.92-3.84-4.93-6.83-5.72a25,25,0,0,0-9.22-.19,138.87,138.87,0,0,0-62.15,23.16"/><path class="cls-5" d="M257.74,187.65a138.35,138.35,0,0,0,21.17,2.91c11.63.62,25.89.19,35.14-6.54,3-2.19,5.62-5.76,4.4-9.14-.77-2.15-3-3.62-5.29-4.19a20.43,20.43,0,0,0-7.15-.13,112.08,112.08,0,0,0-48.27,17.09"/><path class="cls-12" d="M320.26,175.32l-12.5,2.81q-6.39,1.43-12.79,2.79c-4.31.92-8.61,1.8-12.93,2.65s-8.59,1.63-12.9,2.37-8.51,1.39-12.78,2l-1.55.21c-.18,0-.18.32,0,.29q6.38-.84,12.73-1.91t12.85-2.32q6.48-1.25,12.93-2.62c4.3-.9,8.6-1.84,12.89-2.79s8.4-1.88,12.61-2.83l1.52-.35c.19,0,.1-.32-.09-.27Z"/><path class="cls-6" d="M250.78,187.16c17-.89,36-11,49.62-21.21,9-6.73,17.83-13.86,24.45-22.91a64.39,64.39,0,0,0,11.08-25c1.21-5.9,1-13.22-4.09-16.44a10.91,10.91,0,0,0-9.39-.66,24,24,0,0,0-8.06,5.37c-6.76,6.33-11.95,14.12-17.22,21.74-13.73,19.85-30.77,40.71-46.39,59.1"/><path class="cls-5" d="M255.37,184.76c13.14-.66,27.79-8.09,38.32-15.62,6.93-4.95,13.77-10.21,18.89-16.87a46.27,46.27,0,0,0,8.55-18.41c.94-4.34.78-9.73-3.15-12.11a8.83,8.83,0,0,0-7.26-.48,18.53,18.53,0,0,0-6.22,4c-5.22,4.66-9.23,10.4-13.3,16-10.6,14.61-23.77,30-35.83,43.52"/><path class="cls-12" d="M325.23,115.84l-15,18.27c-4.43,5.41-8.82,10.84-13.34,16.17-4.15,4.91-8.43,9.72-13,14.26A118.41,118.41,0,0,1,269.47,177a77.92,77.92,0,0,1-16.55,9.2c-.72.29-1.45.56-2.18.83-.18.06-.1.34.08.28a76.19,76.19,0,0,0,16.76-8.63,111.61,111.61,0,0,0,14.68-12.07c4.66-4.48,9-9.27,13.23-14.17,4.45-5.18,8.74-10.48,13.06-15.76l15-18.33,1.88-2.3c.11-.14-.09-.35-.21-.2Z"/><g class="cls-16"><path class="cls-6" d="M305.66,170.06A32.22,32.22,0,0,0,315,165c1.52-1.12,3-2.27,4.5-3.42s3.26-2.52,4.86-3.81q4.59-3.66,9-7.57t8.6-8.06c2.79-2.76,5.52-5.6,8.16-8.5l1-1.06c.23-.25-.14-.63-.37-.38q-3.92,4.35-8.05,8.49t-8.48,8.06q-4.34,3.93-8.88,7.61c-3.09,2.51-6.25,5-9.43,7.35a37.09,37.09,0,0,1-9.11,5.44c-.4.15-.81.29-1.22.42a.26.26,0,0,0,.14.5Z"/><path class="cls-6" d="M349.58,133.56a7.12,7.12,0,0,1,3.53-5.5,2.23,2.23,0,0,1,2.54-.07,1.72,1.72,0,0,1,.29,1.87,4.16,4.16,0,0,1-1.27,1.53,15.48,15.48,0,0,1-5.19,2.84"/><path class="cls-6" d="M347.43,136.24a4.28,4.28,0,0,1-1.58-2.9,5.27,5.27,0,0,1,0-2.37,2.55,2.55,0,0,1,1.46-1.77.61.61,0,0,1,.35-.06.71.71,0,0,1,.31.16,2.27,2.27,0,0,1,.73,1.55,5.37,5.37,0,0,1-.21,1.73,18.66,18.66,0,0,1-1.39,3.76"/><path class="cls-6" d="M342.53,140.89a2.6,2.6,0,0,1-1-.74,5.37,5.37,0,0,1-1.77-2.8,4.22,4.22,0,0,1,.19-1.69,3.35,3.35,0,0,1,1.46-2.14,1.22,1.22,0,0,1,.85-.15,1.21,1.21,0,0,1,.76.72,2.79,2.79,0,0,1,.16,1.07,18.78,18.78,0,0,1-.67,5.73"/><path class="cls-6" d="M337.1,146.5c-.1.08-.26,0-.37-.08a8.1,8.1,0,0,1-2.39-2.81,5.32,5.32,0,0,1-.44-3.61,2,2,0,0,1,.91-1.37,1.71,1.71,0,0,1,2,.44,3.56,3.56,0,0,1,.81,2,16.41,16.41,0,0,1-.61,5.77"/><path class="cls-6" d="M331,152.14a3.2,3.2,0,0,1-1.35-1.08,9.76,9.76,0,0,1-2.14-3.66,4.58,4.58,0,0,1,.67-4.07,1.46,1.46,0,0,1,2.53,0c1.11,1.38,1.14,3.33,1,5.09a30,30,0,0,1-.52,3.29"/><path class="cls-6" d="M323.16,158.4a10.46,10.46,0,0,1-3.94-7.84c0-1.17.3-2.54,1.38-3a2.1,2.1,0,0,1,2.1.46,4.1,4.1,0,0,1,1.14,1.91c.8,2.53.3,5.27-.2,7.87"/><path class="cls-6" d="M342.77,141.19a10.29,10.29,0,0,1,5.62-.27c.46.07,1,.19,1.18.61a1.12,1.12,0,0,1-.29,1.14,2.85,2.85,0,0,1-1.93.88,5,5,0,0,1-2.12-.37,6.36,6.36,0,0,1-2.79-1.91"/><path class="cls-6" d="M347.54,136.07a10.29,10.29,0,0,1,5.62-.27c.45.06,1,.19,1.17.61a1.07,1.07,0,0,1-.29,1.13,2.88,2.88,0,0,1-1.92.89,5.21,5.21,0,0,1-2.13-.37,6.65,6.65,0,0,1-2.79-1.91"/><path class="cls-6" d="M337.16,146.4a8,8,0,0,1,7,.06,1.94,1.94,0,0,1,1.1,1.11,1.33,1.33,0,0,1-.41,1.27,2.52,2.52,0,0,1-1.25.6,5.54,5.54,0,0,1-3.16-.35,10.81,10.81,0,0,1-2.74-1.7,1.92,1.92,0,0,1-.76-1"/><path class="cls-6" d="M331.08,151.78c2.12-.74,4.45-.31,6.62.27a3.28,3.28,0,0,1,2.18,1.29,2.14,2.14,0,0,1-1,2.74,4,4,0,0,1-3.16,0,9,9,0,0,1-4.56-3.9"/><path class="cls-6" d="M323.54,157.89a7.92,7.92,0,0,1,5,.25,23.42,23.42,0,0,1,4.52,2.42c.7.44,1.48,1,1.55,1.83a1.75,1.75,0,0,1-.74,1.46,3.45,3.45,0,0,1-1.59.56,8.57,8.57,0,0,1-7.67-3.48,5,5,0,0,1-1.25-3.45"/><path class="cls-6" d="M314.26,165.51c-.09.14-.31,0-.44-.08a9.51,9.51,0,0,1-2.82-8.25,4.32,4.32,0,0,1,.56-1.64,4.5,4.5,0,0,1,2.11-1.57,1.08,1.08,0,0,1,.61-.12,1.05,1.05,0,0,1,.64.48,7.63,7.63,0,0,1,1.32,5.5,13.68,13.68,0,0,1-2,5.37"/><path class="cls-6" d="M313.73,165.47a7.45,7.45,0,0,1,4-.43,19.51,19.51,0,0,1,4,1.11,6.36,6.36,0,0,1,2.63,1.46,2.31,2.31,0,0,1,.42,2.79,3.08,3.08,0,0,1-2.68.95,10,10,0,0,1-5.5-1.65,6.52,6.52,0,0,1-2.83-4.86"/></g><g class="cls-16"><path class="cls-6" d="M289.16,142.09a32,32,0,0,0,4.68-9.55c.6-1.79,1.14-3.59,1.69-5.39.6-2,1.2-3.94,1.76-5.92,1.08-3.76,2.06-7.56,2.93-11.37s1.67-7.68,2.35-11.55,1.26-7.76,1.73-11.66c.06-.47.12-1,.17-1.42s-.48-.43-.52-.09q-.68,5.81-1.64,11.58t-2.25,11.48q-1.28,5.72-2.84,11.35c-1.06,3.84-2.22,7.65-3.43,11.45a37.31,37.31,0,0,1-4.28,9.71c-.24.36-.49.7-.76,1s.2.6.41.33Z"/><path class="cls-6" d="M303.84,86.89a7.09,7.09,0,0,1-.31-6.52c.39-.82,1.13-1.65,2-1.53a1.71,1.71,0,0,1,1.32,1.36,4.18,4.18,0,0,1-.15,2,15.32,15.32,0,0,1-2.59,5.32"/><path class="cls-6" d="M303.64,90.32a4.26,4.26,0,0,1-3-1.44A5.39,5.39,0,0,1,299.29,87a2.56,2.56,0,0,1,.16-2.29.69.69,0,0,1,.26-.25.66.66,0,0,1,.34,0,2.26,2.26,0,0,1,1.49.84,5.21,5.21,0,0,1,.83,1.54,18.37,18.37,0,0,1,1.05,3.86"/><path class="cls-6" d="M302.34,97a2.56,2.56,0,0,1-1.23,0A5.3,5.3,0,0,1,298,95.65a4.21,4.21,0,0,1-.82-1.48,3.33,3.33,0,0,1-.05-2.59,1.25,1.25,0,0,1,.61-.61,1.12,1.12,0,0,1,1,.15,2.93,2.93,0,0,1,.76.77A19.17,19.17,0,0,1,302.34,97"/><path class="cls-6" d="M301.15,104.67c0,.13-.2.16-.34.15a8,8,0,0,1-3.57-.9,5.39,5.39,0,0,1-2.46-2.7,2.08,2.08,0,0,1,0-1.64,1.7,1.7,0,0,1,1.86-.77,3.53,3.53,0,0,1,1.8,1.14,16.15,16.15,0,0,1,2.84,5.06"/><path class="cls-6" d="M299.45,112.8a3.25,3.25,0,0,1-1.72-.09,10.06,10.06,0,0,1-3.88-1.75,4.57,4.57,0,0,1-1.8-3.71,1.72,1.72,0,0,1,.77-1.45,1.79,1.79,0,0,1,1.27,0c1.71.49,2.86,2.06,3.74,3.6a29.5,29.5,0,0,1,1.48,3"/><path class="cls-6" d="M296.68,122.45a10.46,10.46,0,0,1-7.75-4.12c-.7-.93-1.23-2.24-.6-3.21a2.11,2.11,0,0,1,2-.85,4.14,4.14,0,0,1,2,.9c2.11,1.6,3.29,4.12,4.39,6.54"/><path class="cls-6" d="M302.7,97.06a10.3,10.3,0,0,1,4.43-3.47,1.43,1.43,0,0,1,1.31-.19,1.09,1.09,0,0,1,.42,1.1,2.78,2.78,0,0,1-1.05,1.83,5,5,0,0,1-1.95.93,6.46,6.46,0,0,1-3.38.06"/><path class="cls-6" d="M303.62,90.13a10.27,10.27,0,0,1,4.43-3.48,1.43,1.43,0,0,1,1.31-.19,1.1,1.1,0,0,1,.42,1.1,2.87,2.87,0,0,1-1,1.84,5.18,5.18,0,0,1-2,.93,6.57,6.57,0,0,1-3.38,0"/><path class="cls-6" d="M301.14,104.56a8,8,0,0,1,5.77-4,1.91,1.91,0,0,1,1.54.26,1.38,1.38,0,0,1,.4,1.27,2.59,2.59,0,0,1-.67,1.21,5.53,5.53,0,0,1-2.79,1.55,10.77,10.77,0,0,1-3.21.2,1.9,1.9,0,0,1-1.2-.37"/><path class="cls-6" d="M299.3,112.47c1.3-1.83,3.46-2.84,5.56-3.62a3.24,3.24,0,0,1,2.52-.21,2.13,2.13,0,0,1,.77,2.81,4,4,0,0,1-2.54,1.87,9,9,0,0,1-6-.54"/><path class="cls-6" d="M296.7,121.81A7.77,7.77,0,0,1,301,119.1a23.49,23.49,0,0,1,5.08-.65,2.74,2.74,0,0,1,2.33.6,1.74,1.74,0,0,1,.24,1.61,3.54,3.54,0,0,1-1,1.39,8.61,8.61,0,0,1-8.27,1.6,5,5,0,0,1-3-2.09"/><path class="cls-6" d="M293.54,133.39c0,.17-.23.22-.4.2a9.5,9.5,0,0,1-7.08-5.1,4.25,4.25,0,0,1-.49-1.65,4.44,4.44,0,0,1,.81-2.51,1.24,1.24,0,0,1,.42-.46,1.14,1.14,0,0,1,.81,0,7.63,7.63,0,0,1,4.25,3.71,13.75,13.75,0,0,1,1.46,5.57"/><path class="cls-6" d="M293.09,133.68a7.41,7.41,0,0,1,3.05-2.71,19.49,19.49,0,0,1,3.88-1.39,6.53,6.53,0,0,1,3-.33,2.32,2.32,0,0,1,2,2,3.08,3.08,0,0,1-1.64,2.33,9.87,9.87,0,0,1-5.44,1.84,6.49,6.49,0,0,1-5.12-2.32"/></g><g class="cls-16"><path class="cls-6" d="M180.66,148.52a31.89,31.89,0,0,0-3.66-10c-.87-1.67-1.8-3.31-2.72-4.95-1-1.8-2-3.59-3.06-5.37q-3-5.07-6.18-10c-2.15-3.29-4.4-6.52-6.72-9.69s-4.73-6.27-7.22-9.31l-.91-1.11c-.21-.26-.64.05-.42.31q3.73,4.52,7.22,9.2t6.74,9.57c2.16,3.24,4.24,6.55,6.23,9.9s4,6.9,5.9,10.4a37.64,37.64,0,0,1,4,9.8c.09.43.16.85.23,1.28a.26.26,0,0,0,.52-.07Z"/><path class="cls-6" d="M151,99.74A7.08,7.08,0,0,1,146,95.45a2.21,2.21,0,0,1,.3-2.52,1.71,1.71,0,0,1,1.89,0,4.1,4.1,0,0,1,1.32,1.48,15.2,15.2,0,0,1,2,5.55"/><path class="cls-6" d="M153.29,102.26a4.21,4.21,0,0,1-3.09,1.14,5.5,5.5,0,0,1-2.35-.33,2.6,2.6,0,0,1-1.54-1.71.63.63,0,0,1,0-.36.61.61,0,0,1,.2-.28,2.23,2.23,0,0,1,1.64-.49,5.53,5.53,0,0,1,1.68.46,18.2,18.2,0,0,1,3.52,1.92"/><path class="cls-6" d="M157.18,107.78a2.59,2.59,0,0,1-.87.87,5.29,5.29,0,0,1-3,1.33,4,4,0,0,1-1.64-.43,3.3,3.3,0,0,1-1.91-1.75,1.24,1.24,0,0,1,0-.87,1.19,1.19,0,0,1,.82-.64,3,3,0,0,1,1.08,0,19.16,19.16,0,0,1,5.57,1.5"/><path class="cls-6" d="M161.94,114c.07.11,0,.25-.13.35a8,8,0,0,1-3.13,2,5.3,5.3,0,0,1-3.64-.09,2,2,0,0,1-1.22-1.09,1.69,1.69,0,0,1,.73-1.88,3.46,3.46,0,0,1,2.07-.51,16.16,16.16,0,0,1,5.62,1.45"/><path class="cls-6" d="M166.63,120.83a3.26,3.26,0,0,1-1.26,1.18,9.79,9.79,0,0,1-3.94,1.59,4.6,4.6,0,0,1-3.93-1.26,1.46,1.46,0,0,1,.34-2.51c1.53-.89,3.46-.64,5.18-.21a29.26,29.26,0,0,1,3.18,1"/><path class="cls-6" d="M171.68,129.51a10.49,10.49,0,0,1-8.34,2.74c-1.15-.14-2.46-.66-2.73-1.79a2.13,2.13,0,0,1,.76-2,4.14,4.14,0,0,1,2.06-.85c2.62-.42,5.25.47,7.75,1.35"/><path class="cls-6" d="M157.52,107.59a10.29,10.29,0,0,1,.55-5.6c.13-.44.33-.94.77-1.07a1.08,1.08,0,0,1,1.08.45,2.83,2.83,0,0,1,.6,2,5,5,0,0,1-.67,2,6.46,6.46,0,0,1-2.3,2.48"/><path class="cls-6" d="M153.14,102.13a10.29,10.29,0,0,1,.55-5.6c.14-.44.33-1,.78-1.08a1.11,1.11,0,0,1,1.08.46,2.83,2.83,0,0,1,.6,2,5.18,5.18,0,0,1-.68,2,6.58,6.58,0,0,1-2.29,2.48"/><path class="cls-6" d="M161.85,113.91a8,8,0,0,1,1.09-6.94,1.9,1.9,0,0,1,1.25-.93,1.35,1.35,0,0,1,1.2.59,2.57,2.57,0,0,1,.41,1.32A5.5,5.5,0,0,1,165,111a10.62,10.62,0,0,1-2.08,2.46,1.85,1.85,0,0,1-1.1.61"/><path class="cls-6" d="M166.28,120.71c-.42-2.21.35-4.46,1.23-6.52a3.31,3.31,0,0,1,1.6-2,2.13,2.13,0,0,1,2.56,1.4,4,4,0,0,1-.4,3.13,9.05,9.05,0,0,1-4.53,3.94"/><path class="cls-6" d="M171.23,129.05a7.8,7.8,0,0,1,1-4.94,23.14,23.14,0,0,1,3-4.13c.55-.63,1.21-1.31,2-1.26a1.74,1.74,0,0,1,1.34,1,3.43,3.43,0,0,1,.32,1.65,8.57,8.57,0,0,1-4.56,7.08,5,5,0,0,1-3.6.73"/><path class="cls-6" d="M177.41,139.34c.13.11,0,.32-.14.43a9.49,9.49,0,0,1-8.57,1.58,4.16,4.16,0,0,1-1.54-.78,4.5,4.5,0,0,1-1.24-2.32,1.05,1.05,0,0,1,0-.63,1.08,1.08,0,0,1,.57-.56,7.62,7.62,0,0,1,5.63-.5,13.66,13.66,0,0,1,5,2.79"/><path class="cls-6" d="M177.3,139.87a7.55,7.55,0,0,1,.16-4.08,19.46,19.46,0,0,1,1.68-3.76,6.4,6.4,0,0,1,1.83-2.39,2.32,2.32,0,0,1,2.82,0,3.1,3.1,0,0,1,.55,2.79,10,10,0,0,1-2.44,5.2,6.47,6.47,0,0,1-5.21,2.09"/></g><path class="cls-17" d="M219.15,92.52c10.5.45,21.87,3.62,29.55,10.79a5.35,5.35,0,0,1,1.58,2.11,6.23,6.23,0,0,1-.41,3.81,77.74,77.74,0,0,0-.69,44.39c1.07,3.78,2.44,7.51,2.81,11.42s-.41,8.15-3.11,11a14.6,14.6,0,0,1-4.13,2.9c-8.41,4.25-18.28,4.09-27.69,3.7-5.81-.24-11.67-.54-17.25-2.13s-10.95-4.59-14.35-9.3c-3.5-4.86-4.6-11-5-17-1-13.57.83-27.17,1.08-40.78.08-4,0-8-1.55-11.68,7.17-5,15.74-8,24.29-9.67a9.46,9.46,0,0,0,7.47,3.71,9,9,0,0,0,7.44-3.25"/><path class="cls-18" d="M247.54,163.33c-.34-3.91,2.44-8.43,1.45-12.21-2.51-9.61-7.26-19-6.24-28.88a11.29,11.29,0,0,0-5.22,4.64,12.8,12.8,0,0,0-1.17,5.78c0,4,.69,7.9.85,11.86s-.34,8.14-2.57,11.38c-2.57,3.74-7,5.63-11.35,6.79a85.78,85.78,0,0,1-8.86,1.79,36.66,36.66,0,0,1-10.34.55,14.14,14.14,0,0,1-9.12-4.56c-3.58-4.25-3.47-10.43-4.11-16a50.18,50.18,0,0,0-5.42-17.54,10.41,10.41,0,0,0-3.41-4.22h0c-.53,9.93-6.29,20.37-5.6,30.28.41,6,6.45,11.65,9.68,16.51a24.21,24.21,0,0,0,13.25,9.3c5.16,1.59,10.57,1.89,15.93,2.13,8.69.39,17.81.55,25.57-3.7a13.61,13.61,0,0,0,3.82-2.9C247.16,171.48,247.88,167.25,247.54,163.33Z"/><path class="cls-17" d="M184.32,99c3.25,14.42.45,31.44-3.15,45.77-1.07,4.26-.85,8.93.68,11.1s4.31,3.58,6.8,4.72A44.38,44.38,0,0,1,202.88,171a16.7,16.7,0,0,1,4.16,6.36,7.86,7.86,0,0,1-1.08,7.27,8.49,8.49,0,0,1-6.58,2.66,32.32,32.32,0,0,1-7.2-1.24,76.26,76.26,0,0,0-12.12-1.82c-3.53-.24-7.12-.23-10.52-1.23a20.19,20.19,0,0,1-11.53-9.2,24.16,24.16,0,0,1-3-14.55,50,50,0,0,1,1.65-7.92c2.9-10.8,6.9-20.25,10.56-30.82a56,56,0,0,1,6.9-12.93c2.64-3.74,5.69-7.81,10.2-8.58"/><path class="cls-12" d="M185.5,126.49c2-8.91,1.27-18.77-.83-27.56-.1-.45-.81-.26-.7.2a68.14,68.14,0,0,1,1.75,19.15,48.06,48.06,0,0,1-.92,8c-.1.46.6.65.7.19Z"/><path class="cls-10" d="M212.08,177.49s-9.65-2.4-13.27-.33-9.09,5.09-8.93,8.93v1.58s25.88.75,28-1.58"/><path class="cls-17" d="M240.92,98c4.74.54,9.92,6.06,13.19,10.83s5.51,10.17,7.71,15.52l12.39,30.06a50,50,0,0,1,3.19,9.54,24.78,24.78,0,0,1,.13,8.33,13.44,13.44,0,0,1-2.45,6.31c-2,2.54-5.15,3.83-8.17,5-6.37,2.42-12.9,4.69-19.7,5.16a77.2,77.2,0,0,1-8.05,0c-7.42-.27-14.86-.55-22.15-1.9a3.42,3.42,0,0,1-1.5-.53,3.51,3.51,0,0,1-.91-1.37l-2.2-4.81a5.81,5.81,0,0,1-.75-2.82,5.42,5.42,0,0,1,2-3.28,32.55,32.55,0,0,1,8.73-5.77c6.58-2.95,14.08-3.69,20.26-7.4a9.46,9.46,0,0,0,2.07-1.58c2.28-2.42,2.14-6.31.87-9.37s-2.17-6-3.43-9.07c-2.79-6.83-4.18-11.3-4.33-17.14-.22-8.32.4-17.8,3.06-25.68"/><path class="cls-18" d="M215.88,172.3a20.9,20.9,0,0,1,2.12,3.85,32.23,32.23,0,0,1,2.67,10.92c0,.47.76.47.73,0a33.68,33.68,0,0,0-2.64-11,21.08,21.08,0,0,0-2.25-4.15c-.28-.38-.91,0-.63.37Z"/><path class="cls-12" d="M237.9,126.88c-.61-9.53.12-19.82,3.37-28.84.16-.44-.54-.63-.7-.19-3.27,9.07-4,19.45-3.4,29,0,.47.76.47.73,0Z"/><rect class="cls-13" x="1.91" y="189.93" width="345.1" height="6.3" rx="3.03"/><rect class="cls-19" x="139.24" y="187" width="117.71" height="2.93" rx="0.5"/><path class="cls-19" d="M190.9,190H90.47l-4.28-61.49a7.71,7.71,0,0,1,7.69-8.24h84.81a5.9,5.9,0,0,1,5.87,5.32Z"/><path class="cls-3" d="M187.48,189.93H87.05l-4.41-63.41a5.9,5.9,0,0,1,5.89-6.31h86.74a5.9,5.9,0,0,1,5.87,5.32Z"/><g class="cls-20"><path class="cls-21" d="M117,157.68a30.11,30.11,0,0,0-29.94,32.19H187.48l-1.34-13.61a206.7,206.7,0,0,1-57-16A29.83,29.83,0,0,0,117,157.68"/></g></g></g></svg>